<?xml version="1.0" encoding="UTF-8"?>
<svg id="svg18" width="115.43" height="128" version="1.1" viewBox="0 0 115.43 128" xmlns="http://www.w3.org/2000/svg">
 <desc id="desc1">test.dxf - scale = 38.907151, origin = (0.000000, 0.000000), method = auto</desc>
 <g id="g18" transform="matrix(.88119 0 0 .88119 -27.317 -812.46)" fill="none" stroke="#000" stroke-linejoin="round">
  <path id="leftOutside" d="m35.025 962.64a1.4705 1.4705 0 0 0-2.2012 1.1576 425.77 425.77 0 0 0 0 67.089 2.941 2.941 0 0 0 1.2653 2.1916 425.77 425.77 0 0 0 58.101 33.544 1.4705 1.4705 0 0 0 2.1031-1.3275v-66.739a2.941 2.941 0 0 0-1.4705-2.547z"/>
  <path id="leftInside" d="m91.351 998.55-55.774-32.201a422.83 422.83 0 0 0 0.17738 64.299 422.83 422.83 0 0 0 55.596 32.303z"/>
  <path id="rightOutside" d="m98.704 1065.3a1.4705 1.4705 0 0 0 2.1031 1.3275 425.77 425.77 0 0 0 58.101-33.544 2.941 2.941 0 0 0 1.2653-2.1916 425.77 425.77 0 0 0 0-67.089 1.4705 1.4705 0 0 0-2.2012-1.1576l-57.797 33.369a2.941 2.941 0 0 0-1.4705 2.547z"/>
  <path id="rightInside" d="m101.65 998.55v64.402a422.83 422.83 0 0 0 55.596-32.303 422.83 422.83 0 0 0 0.17738-64.299z"/>
  <path id="topOutside" d="m155.77 958.82a1.4705 1.4705 0 0 0 0.0981-2.4851 425.77 425.77 0 0 0-58.101-33.544 2.941 2.941 0 0 0-2.5305 0 425.77 425.77 0 0 0-58.101 33.544 1.4705 1.4705 0 0 0 0.09805 2.4851l57.797 33.369a2.941 2.941 0 0 0 2.941 0z"/>
  <path id="topInside" d="m96.498 989.64 55.774-32.201a422.83 422.83 0 0 0-55.774-31.996 422.83 422.83 0 0 0-55.774 31.996z"/>
 </g>
</svg>
