<?xml version="1.0" encoding="UTF-8" standalone="no"?>
<svg
   viewBox="0 0 115.43265 128.00001"
   width="115.43266"
   height="128"
   version="1.1"
   id="svg18"
   sodipodi:docname="iso.svg"
   inkscape:version="1.4 (86a8ad7, 2024-10-11)"
   xmlns:inkscape="http://www.inkscape.org/namespaces/inkscape"
   xmlns:sodipodi="http://sodipodi.sourceforge.net/DTD/sodipodi-0.dtd"
   xmlns="http://www.w3.org/2000/svg"
   xmlns:svg="http://www.w3.org/2000/svg">
  <sodipodi:namedview
     id="namedview18"
     pagecolor="#ffffff"
     bordercolor="#000000"
     borderopacity="0.25"
     inkscape:showpageshadow="2"
     inkscape:pageopacity="0.0"
     inkscape:pagecheckerboard="true"
     inkscape:deskcolor="#d1d1d1"
     inkscape:zoom="8"
     inkscape:cx="42.25"
     inkscape:cy="64.3125"
     inkscape:window-width="3440"
     inkscape:window-height="1369"
     inkscape:window-x="-8"
     inkscape:window-y="-8"
     inkscape:window-maximized="1"
     inkscape:current-layer="svg18"
     showguides="true" />
  <desc
     id="desc1">test.dxf - scale = 38.907151, origin = (0.000000, 0.000000), method = auto</desc>
  <defs
     id="defs4">
    <marker
       id="DistanceX"
       orient="auto"
       refX="0"
       refY="0"
       style="overflow:visible">
      <path
         d="M 3,-3 -3,3 M 0,-5 V 5"
         style="stroke:#000000;stroke-width:0.5"
         id="path1" />
    </marker>
    <pattern
       id="Hatch"
       patternUnits="userSpaceOnUse"
       width="8"
       height="8"
       x="0"
       y="0">
      <path
         d="M8 4 l-4,4"
         stroke="#000000"
         stroke-width="0.25"
         linecap="square"
         id="path2" />
      <path
         d="M6 2 l-4,4"
         stroke="#000000"
         stroke-width="0.25"
         linecap="square"
         id="path3" />
      <path
         d="M4 0 l-4,4"
         stroke="#000000"
         stroke-width="0.25"
         linecap="square"
         id="path4" />
    </pattern>
    <symbol
       id="*Model_Space" />
    <symbol
       id="*Paper_Space" />
    <symbol
       id="*Paper_Space0" />
  </defs>
  <g
     id="g18"
     transform="matrix(0.88118881,0,0,0.88118881,-27.316854,-812.45611)">
    <path
       d="m 35.024645,962.636 a 1.470506,1.470506 0 0 0 -2.201189,1.1576 425.77134,425.77134 0 0 0 0,67.0888 2.941013,2.941013 0 0 0 1.265271,2.1916 425.77134,425.77134 0 0 0 58.100626,33.5444 1.470506,1.470506 0 0 0 2.103142,-1.3275 v -66.7386 a 2.941013,2.941013 0 0 0 -1.470506,-2.547 z"
       style="fill:none;fill-opacity:1;stroke:#000000;stroke-linejoin:round;stroke-opacity:1"
       id="leftOutside" />
    <path
       d="M 91.351482,998.5523 35.57795,966.3514 a 422.83033,422.83033 0 0 0 0.177377,64.2993 422.83033,422.83033 0 0 0 55.596155,32.3033 z"
       style="fill:none;fill-opacity:1;stroke:#000000;stroke-linejoin:round;stroke-opacity:1"
       id="leftInside" />
    <path
       d="m 98.704015,1065.2909 a 1.470506,1.470506 0 0 0 2.103145,1.3275 425.77134,425.77134 0 0 0 58.10062,-33.5444 2.941013,2.941013 0 0 0 1.26527,-2.1916 425.77134,425.77134 0 0 0 0,-67.0888 1.470506,1.470506 0 0 0 -2.20119,-1.1576 l -57.79734,33.3693 a 2.941013,2.941013 0 0 0 -1.470505,2.547 z"
       style="fill:none;fill-opacity:1;stroke:#000000;stroke-linejoin:round;stroke-opacity:1"
       id="rightOutside" />
    <path
       d="m 101.64503,998.5523 v 64.4017 a 422.83033,422.83033 0 0 0 55.59615,-32.3033 422.83033,422.83033 0 0 0 0.17738,-64.2993 z"
       style="fill:none;fill-opacity:1;stroke:#000000;stroke-linejoin:round;stroke-opacity:1"
       id="rightInside" />
    <path
       d="m 155.7661,958.8155 a 1.470506,1.470506 0 0 0 0.0981,-2.4851 425.77134,425.77134 0 0 0 -58.100621,-33.5444 2.941013,2.941013 0 0 0 -2.530542,0 425.77134,425.77134 0 0 0 -58.100626,33.5444 1.470506,1.470506 0 0 0 0.09805,2.4851 l 57.797344,33.3693 a 2.941013,2.941013 0 0 0 2.941012,0 z"
       style="fill:none;fill-opacity:1;stroke:#000000;stroke-linejoin:round;stroke-opacity:1"
       id="topOutside" />
    <path
       d="m 96.498255,989.6378 55.773535,-32.2009 a 422.83033,422.83033 0 0 0 -55.773535,-31.996 422.83033,422.83033 0 0 0 -55.773532,31.996 z"
       style="fill:none;fill-opacity:1;stroke:#000000;stroke-linejoin:round;stroke-opacity:1"
       id="topInside" />
  </g>
</svg>
