<?xml version="1.0" encoding="UTF-8"?>
<!-- Created with Inkscape (http://www.inkscape.org/) -->
<svg width="1536.3" height="1021.8" version="1.1" viewBox="0 0 1536.3 1021.8" xmlns="http://www.w3.org/2000/svg">
 <g>
  <path id="RightTrigger" d="m1333.2 35.743c15.941 9.3218 16.797 26.28 18.092 42.564-7.5625-3.1711-16.15-5.6684-26.539-7.8555-38.219-8.0455-97.024-20.563-155.9-32.701-9.5972-1.7592-19.884-3.0567-29.754-4.498 1.1284-16.477 9.8604-29.691 27.156-32.256 32.319-2.5515 105.17-3.0135 166.95 34.746z"/>
  <path id="LeftTrigger" d="m203.14 35.743c-15.941 9.3218-16.797 26.28-18.092 42.564 7.5625-3.1711 16.15-5.6684 26.539-7.8555 38.219-8.0455 97.024-20.563 155.9-32.701 9.5972-1.7592 19.884-3.0567 29.754-4.498-1.1284-16.477-9.8604-29.691-27.156-32.256-32.319-2.5515-105.17-3.0135-166.95 34.746z"/>
  <path id="MainBody" d="m485.1 20.329c-39.3 4.1502-78.498 9.2224-117.51 15.643 0.0231 0.03639 0.0644 0.06149 0.0879 0.09766 36.521-5.0763 74.065 3.9997 81.828 39.949 3.1311 14.467 42.146 212.81 42.146 226.58 0.0133 7.2613-1.0398 17.297-5.1465 28.727-4.0933 11.427-11.265 24.226-23.332 36.912-141.95 155.06-238.37 402.66-262.68 488.88-10.125 33.307-18.217 59.295-25.311 79.508-7.1067 20.213-13.173 34.626-19.512 44.973-8.428 13.72-23.169 21.68-38.525 21.68-3.2299 0-7.3309-0.6361-11.98-1.957-0.16244 0.067-0.32796 0.1702-0.49023 0.2363 37.962 10.636 88.874 34.156 123.76 4.7305 51.59-85.045 79.642-181.51 113.27-274.33 34.179-66.478 115.71-74.414 182.22-68.584 186.61 5.8875 373.37 2.1566 559.98-0.6582 62.792 0.8027 108.46 53.272 122.04 110.64 29.891 79.792 52.859 164.05 98.334 236.55 38.933 26.643 90.193 1.8786 130.34-9.4903-0.039-0.068-0.097-0.1196-0.1367-0.1875-6.0247 2.0448-11.337 3.0508-15.305 3.0508-15.356 0-30.097-7.9597-38.525-21.68-6.3386-10.347-12.405-24.759-19.512-44.973-7.0933-20.213-15.183-46.201-25.309-79.508-24.318-86.229-120.73-333.82-262.68-488.88-12.067-12.686-19.241-25.485-23.334-36.912-4.1067-11.429-5.1598-21.465-5.1465-28.727 0-13.776 39.016-212.12 42.146-226.58 6.6931-30.996 35.546-41.944 66.774-41.141-3.9273-1.2879-10.222-2.5773-20.207-3.916-24.76-3.3509-49.594-6.1035-74.438-8.7617 15.97 5.8167 25.725 22.572 22.41 39.547-10.146 52.433-38.609 197.55-50.787 235.55-15.016 46.624-62.598 53.374-69.975 53.896-168.84 3.9889-245.19 3.2999-384.87 0-7.3771-0.52239-54.959-7.2729-69.975-53.896-12.178-38.004-40.639-183.12-50.785-235.55-3.821-19.568 9.708-38.864 30.129-41.418z" fill="#888" stop-color="#000000"/>
 </g>
 <g>
  <path id="Top" d="m960.6 351.19c7.3771-0.52239 54.959-7.2729 69.975-53.896 12.178-38.004 40.639-183.12 50.785-235.55 3.8419-19.675-9.8512-39.091-30.46-41.474-135.53-18.475-429.55-18.529-565.47 0-20.609 2.3826-34.302 21.798-30.46 41.474 10.146 52.433 38.607 197.55 50.785 235.55 15.016 46.624 62.598 53.374 69.975 53.896 139.67 3.2999 216.03 3.9889 384.87 0z"/>
  <path id="RightBody" d="m1049.8 331.33c-4.1067-11.429-5.16-21.467-5.1467-28.728 0-13.776 39.016-212.12 42.147-226.58 7.7766-36.014 45.44-45.069 82.023-39.933 58.876 12.138 117.68 24.656 155.9 32.701s53.369 19.326 74.443 59.026 49.659 116.22 69.889 176.95c23.898 64.517 38.65 131.15 49.691 198.83 8.7773 56.575 17.559 133.39 17.561 214.52-1e-3 54.124-3.908 110.18-9.1745 136.97s-9.6225 49.387-22.512 75.507c-6.4534 13.067-15.048 27.013-26.413 39.467-22.686 24.846-46.828 33.227-59.045 33.227-15.356 0-30.097-7.9601-38.525-21.68-6.3386-10.347-12.405-24.76-19.512-44.973-7.0933-20.213-15.184-46.2-25.309-79.507-24.318-86.229-120.73-333.82-262.68-488.89-12.067-12.686-19.24-25.484-23.333-36.91z"/>
  <path id="LeftBody" d="m486.51 331.33c4.1067-11.429 5.16-21.467 5.1467-28.728 0-13.776-39.016-212.12-42.147-226.58-7.7766-36.014-45.441-45.069-82.023-39.933-58.876 12.138-117.68 24.656-155.9 32.701-38.219 8.0455-53.369 19.326-74.443 59.026s-49.659 116.22-69.889 176.95c-23.898 64.517-38.65 131.15-49.691 198.83-8.7773 56.575-17.559 133.39-17.561 214.52 1e-3 54.124 3.908 110.18 9.1745 136.97s9.6225 49.387 22.512 75.507c6.4533 13.067 15.048 27.013 26.413 39.467 22.686 24.846 46.828 33.227 59.045 33.227 15.356 0 30.097-7.9601 38.525-21.68 6.3386-10.347 12.405-24.76 19.512-44.973 7.0933-20.213 15.184-46.2 25.309-79.507 24.318-86.229 120.73-333.82 262.68-488.89 12.067-12.686 19.24-25.484 23.333-36.91z"/>
 </g>
 <g>
  <path id="TopRightSpecial" d="m1132.4 168.75c-0.4467 0-0.8987-0.04-1.352-0.12l-23.341-4.0267c-3.8466-0.66667-6.56-4-6.56-7.7867 0-0.44 0.037-0.89333 0.116-1.3467l10.293-59.64c0.668-3.84 3.9986-6.56 7.7813-6.56 0.4467 0 0.8987 0.04 1.352 0.12l23.341 4.0267c3.8467 0.66667 6.56 4 6.56 7.7867 0 0.44-0.037 0.89333-0.116 1.3467l-10.293 59.64c-0.668 3.84-3.9987 6.56-7.7813 6.56z" fill="#888"/>
  <path id="TopLeftSpecial" d="m403.97 168.75c0.4467 0 0.8987-0.04 1.352-0.12l23.341-4.0267c3.8466-0.66667 6.56-4 6.56-7.7867 0-0.44-0.037-0.89333-0.116-1.3467l-10.293-59.64c-0.668-3.84-3.9986-6.56-7.7813-6.56-0.4467 0-0.8987 0.04-1.352 0.12l-23.341 4.0267c-3.8467 0.66667-6.56 4-6.56 7.7867 0 0.44 0.037 0.89333 0.116 1.3467l10.293 59.64c0.668 3.84 3.9987 6.56 7.7813 6.56z" fill="#888"/>
  <circle id="RightJoystick" cx="1011.5" cy="501.53" r="91.001" stroke-linecap="round" stroke-linejoin="round" stroke-width="4.3505"/>
  <circle id="LeftJoystick" cx="522.27" cy="503.79" r="91.001" stroke-linecap="round" stroke-linejoin="round" stroke-width="4.3505"/>
 </g>
 <g fill="#888">
  <g>
   <path id="DpadRight" d="m335.94 328.9c6.12 6.936 14.924 10.909 24.173 10.909h36.725c12.788-3e-3 23.151-10.365 23.153-23.153v-38.657c0-14.093-11.42-25.507-25.511-25.507h-32.891c-9.888 0-19.287 4.2933-25.751 11.787l-22.456 26c-1.6173 1.868-2.432 4.2067-2.4293 6.5267 0 2.356 0.8373 4.728 2.4987 6.6107z"/>
   <path id="DpadLeft" d="m249.15 328.9c-6.12 6.936-14.924 10.909-24.173 10.909h-36.725c-12.788-3e-3 -23.151-10.365-23.153-23.153v-38.657c0-14.093 11.42-25.507 25.511-25.507h32.891c9.888 0 19.287 4.2933 25.751 11.787l22.456 26c1.6173 1.868 2.432 4.2067 2.4293 6.5267 0 2.356-0.8373 4.728-2.4987 6.6107z"/>
   <path id="DpadDown" d="m259.4 340c-6.936 6.12-10.909 14.924-10.909 24.173v36.725c3e-3 12.788 10.365 23.151 23.153 23.153h38.657c14.093 0 25.507-11.42 25.507-25.511v-32.891c0-9.888-4.2933-19.287-11.787-25.751l-26-22.456c-1.868-1.6173-4.2067-2.432-6.5267-2.4293-2.356 0-4.728 0.8373-6.6107 2.4987z"/>
   <path id="DpadUp" d="m259.15 252.77c-6.936-6.12-10.909-14.924-10.909-24.173v-36.725c3e-3 -12.788 10.365-23.151 23.153-23.153h38.657c14.093 0 25.507 11.42 25.507 25.511v32.891c0 9.888-4.2933 19.287-11.787 25.751l-26 22.456c-1.868 1.6173-4.2067 2.432-6.5267 2.4293-2.356 0-4.728-0.8373-6.6107-2.4987z"/>
  </g>
  <g stroke-linecap="round" stroke-linejoin="round" stroke-width=".95927">
   <circle id="Square" cx="1128.6" cy="295.6" r="52.833"/>
   <circle id="Triangle" cx="1240.3" cy="183.08" r="52.833"/>
   <circle id="Circle" cx="1353" cy="295.6" r="52.833"/>
   <ellipse id="X" cx="1240.3" cy="406.76" rx="52.833" ry="52.833"/>
  </g>
 </g>
</svg>
