<?xml version="1.0" encoding="UTF-8"?>
<svg version="1.1" viewBox="0 0 767.09 515.34" xmlns="http://www.w3.org/2000/svg">
 <title>xbox controller icon</title>
 <path id="Body" transform="translate(-576.77,-267.62)" d="m576.89 666.35c-0.67-40 9.61-77.88 22.25-115.23 21.69-64.08 44-127.94 65.87-192 3.32-9.73 9.52-16.23 18.73-19.9 13.108-5.1994 26.277-10.22 39.572-14.851 23.066-8.0351 46.513-14.9 70.688-19.499 11.18-2.13 20 0.86 27.34 9.45 15.79 18.44 32.07 36.46 47.53 55.17 9.29 11.24 19.82 16.68 35 16.32 37.8-0.9 75.62-0.9 113.46 0 14.59 0.32 24.75-5 33.67-15.77 14.52-17.5 30.06-34.16 44.35-51.83 9.61-11.89 20.55-16.09 35.6-12.7 36.24 8.15 71.28 19.91 105.66 33.76 9.51 3.83 15.57 10.68 18.94 20.67 24.32 72.08 49.35 143.92 73.26 216.14 11.31 34.15 17 69.47 14.58 105.67-3 46-24.75 78.93-67.52 97.54-9.1 4-16.08 3.07-23.39-4-30.88-29.807-61.993-59.377-93.34-88.71-9.6755-9.0721-20.04-17.38-31-24.85-12.31-8.32-26.57-11.39-41.52-11.37-84.08 0.0667-168.16 0.0667-252.25 0-25.07-0.06-45.6 10.09-63.27 26.74-32.54 30.67-64.43 62-97.21 92.44-17.38 16.12-14.07 17.73-39.09 5-37.15-18.91-55.17-51-57.84-92-0.37-5.44-0.07-10.82-0.07-16.19z"/>
 <path id="UpperBody" d="m117.05 55.623c2.26-12.79 7.38-21.52 18.94-26.89 31.525-14.763 65.298-24.146 99.92-27.76 5-0.52 10.48 1.24 15.47 2.8 3.9182 1.2136 7.5651 3.1728 10.74 5.77 13.84 11.57 29.78 13 47.15 12.74 56.23-0.74 112.47-0.19 168.71-0.45 4.5 0 10-1.21 13.34-3.91 20.31-16.29 42.18-19.88 67.44-13.32 25.54 6.62 50.88 13.29 74.52 25.22 11.56 5.83 15 11.16 16.76 25-22.29-7.12-44.47-14.59-66.9-21.21-11.22-3.31-22.87-5.24-34.39-7.47-13.55-2.62-24.68 2.1-33.58 12.26-16.16 18.46-32.58 36.71-48.12 55.68-7.63 9.3-15.94 13.25-28.2 13-37.56-0.74-75.14-0.51-112.71 0-9.89 0.13-16.93-3-23.18-10.47-15.1-18-31.14-35.26-45.91-53.53-12.58-15.55-27.87-21.11-46.83-15.66-28.68 8.25-57.22 17-85.82 25.58-2.19 0.69-4.32 1.55-7.35 2.62z"/>
 <path id="Logo" class="b" d="m383.56 34.951c5.263-0.0055 10.415 1.516 14.83 4.38-5.3023 0.53686-10.357 2.5112-14.62 5.71 0 0-7.12-5.93-14.94-5.78 4.3945-2.8208 9.5081-4.3171 14.73-4.31zm-27.54 27.83c-0.0201-7.5765 3.041-14.836 8.48-20.11 1.54 0.31 6.9 1.76 12.26 7.82 0 0-12.75 10.85-15.88 28.08-3.1781-4.6514-4.8725-10.157-4.86-15.79zm27.54 27.84c-8.1192-0.01426-15.813-3.6339-21-9.88 0.62-2.24 3.92-9.78 21.25-24.38 0 0 18.6 15.49 20.52 24.74-5.1966 6.0624-12.785 9.548-20.77 9.54zm23-12.59c-0.7-4-3.7-15.57-16-27.23 0 0 4.76-6 12-8.18 9.6078 9.3388 11.282 24.163 4 35.41z" fill="#888"/>
 <path id="Dpad" class="c" transform="translate(-576.77,-267.62)" d="m846.66 563.61c-8.83 0-16.93-0.11-25 0-7 0.13-10.45-3-10.3-10.12 0.1-4.85-0.11-9.7 0-14.55 0.2-8.58 2.49-10.87 11-11 7.82-0.1 15.65 0 24.29 0 0-8.76-0.09-16.6 0-24.44 0.13-8.51 4.13-12.05 12.42-11.58 4.29 0.25 8.6 0.12 12.91 0.13 6.92 0 10.34 3.53 10.35 10.41v25.49h24c8.8 0.08 11.23 2.5 11.58 11.42 0.12 3.06-0.05 6.13 0.08 9.19 0.53 12.89-1.49 15-14.67 15h-21c0 8.4 0.07 16.22 0 24-0.11 9.14-2.88 11.9-11.82 12.09-23.87 0.52-23.87 0.52-23.88-23.09z" fill="#888"/>
 <g stroke-linecap="round" stroke-linejoin="round">
  <ellipse id="LeftJoystickWell" cx="191.58" cy="155.56" rx="59.327" ry="59.327" fill="#888880" stroke-width="2.8607"/>
  <circle id="LeftJoystick" cx="191.58" cy="155.56" r="42.982" stroke-width="2.0726"/>
 </g>
 <g stroke-linecap="round" stroke-linejoin="round">
  <ellipse id="RightJoystickWell" cx="478.73" cy="278.33" rx="59.327" ry="59.327" fill="#888880" stroke-width="2.8607"/>
  <ellipse id="RightJoystick" cx="478.73" cy="278.33" rx="42.982" ry="42.982" stroke-width="2.0726"/>
 </g>
 <g fill="#888" stroke-linecap="round" stroke-linejoin="round" stroke-width="1.5315">
  <circle id="X" cx="535.64" cy="155.54" r="24.102"/>
  <circle id="Y" cx="586.41" cy="104.75" r="24.102"/>
  <circle id="B" cx="637.12" cy="155.55" r="24.102"/>
  <ellipse id="A" cx="586.4" cy="206.42" rx="24.102" ry="24.102"/>
 </g>
</svg>
